<svg width="615" height="205" viewBox="0 0 615 205" fill="none" xmlns="http://www.w3.org/2000/svg">
<path d="M0 7C0 3.68629 2.68629 1 6 1H32V186H0V7Z" fill="#1668DC"/>
<rect x="86" y="1" width="32" height="185" fill="#1668DC"/>
<path d="M172 1H198C201.314 1 204 3.68629 204 7V186H172V1Z" fill="#1668DC"/>
<path d="M32 1C53.3371 8.17065 65.1268 7.98738 86 1V186H32V1Z" fill="#D9D9D9"/>
<path d="M118 1C139.337 8.17065 151.127 7.98738 172 1V186H118V1Z" fill="#D9D9D9"/>
<path d="M131.5 5L131.5 183" stroke="#A5A5A5" stroke-width="2"/>
<path d="M160 6C160 15.916 160 183 160 183" stroke="#A5A5A5" stroke-width="2"/>
<path d="M145 6.2583L145 184" stroke="#A5A5A5" stroke-width="2"/>
<path d="M45 4.7373L45 183" stroke="#A5A5A5" stroke-width="2"/>
<path d="M73.5 4.5C73.5001 14.416 73.4999 183 73.4999 183" stroke="#A5A5A5" stroke-width="2"/>
<path d="M58.5 6.2583L58.5 184" stroke="#A5A5A5" stroke-width="2"/>
<path d="M204 184.077L204 199C204 202.314 201.314 205 198 205L6 205C2.6863 205 -1.25366e-06 202.314 -1.03213e-06 199L-3.44852e-08 184.077C79.6665 183.218 124.333 183.584 204 184.077Z" fill="#1668DC"/>
<path d="M16 185.261C16 177.991 22.7973 172.634 29.8659 174.333L56.5391 180.743C58.4213 181.196 60.3849 181.186 62.2625 180.715L87.1058 174.485C94.1613 172.715 101 178.05 101 185.324V185.324C101 191.497 95.9965 196.5 89.8244 196.5H27.2394C21.032 196.5 16 191.468 16 185.261V185.261Z" fill="#1668DC"/>
<path d="M101 185.261C101 177.991 107.797 172.634 114.866 174.333L141.539 180.743C143.421 181.196 145.385 181.186 147.262 180.715L172.106 174.485C179.161 172.715 186 178.05 186 185.324V185.324C186 191.497 180.997 196.5 174.824 196.5H112.239C106.032 196.5 101 191.468 101 185.261V185.261Z" fill="#1668DC"/>
<rect x="236" width="186" height="33" fill="#D9D9D9"/>
<rect x="345.79" y="1" width="204" height="32.79" transform="rotate(90 345.79 1)" fill="#D9D9D9"/>
<rect x="495.79" y="1.99023" width="203.01" height="32.79" transform="rotate(90 495.79 1.99023)" fill="#D9D9D9"/>
<rect x="614.79" y="1.99023" width="203.01" height="32.79" transform="rotate(90 614.79 1.99023)" fill="#D9D9D9"/>
<rect x="615" y="32.8398" width="152" height="32.8398" transform="rotate(-180 615 32.8398)" fill="#D9D9D9"/>
<line x1="102.5" y1="1" x2="102.5" y2="205" stroke="#125ECB"/>
<path d="M160 4.5C160 14.7023 160 6.63236 160 6.63236" stroke="#B2B0B0" stroke-width="2"/>
</svg>
