<svg width="107" height="107" viewBox="0 0 107 107" fill="none" xmlns="http://www.w3.org/2000/svg">
<path d="M0 6.5205C0 3.20679 2.68629 0.520508 6 0.520508H16.6504V96.7807H0V6.5205Z" fill="#1668DC"/>
<rect x="44.748" y="0.520508" width="16.6504" height="96.2602" fill="#1668DC"/>
<path d="M89.4958 0.520508H100.146C103.46 0.520508 106.146 3.2068 106.146 6.52051V96.7807H89.4958V0.520508Z" fill="#1668DC"/>
<path d="M16.6504 0.520508C27.7526 4.25158 33.8871 4.15622 44.748 0.520508V96.7807H16.6504V0.520508Z" fill="#D9D9D9"/>
<path d="M61.3984 0.520508C72.5007 4.25158 78.6351 4.15622 89.496 0.520508V96.7807H61.3984V0.520508Z" fill="#D9D9D9"/>
<path d="M106.146 95.7801L106.146 100.667C106.146 103.981 103.46 106.667 100.146 106.667L5.99991 106.667C2.6862 106.667 -9.7841e-05 103.981 -9.76194e-05 100.667L-9.72927e-05 95.7801C41.4524 95.3332 64.6933 95.5237 106.146 95.7801Z" fill="#1668DC"/>
<path d="M8.3252 96.3963C8.3252 92.6136 11.862 89.8261 15.5399 90.7101L28.0444 93.7154C29.9265 94.1678 31.8902 94.1581 33.7677 93.6872L45.3234 90.7892C48.9945 89.8685 52.5528 92.6446 52.5528 96.4294V96.4294C52.5528 99.641 49.9494 102.244 46.7379 102.244H14.1733C10.9435 102.244 8.3252 99.6261 8.3252 96.3963V96.3963Z" fill="#1668DC"/>
<path d="M52.5527 96.3963C52.5527 92.6136 56.0896 89.8261 59.7675 90.7101L72.2719 93.7154C74.1541 94.1678 76.1177 94.1581 77.9953 93.6872L89.5509 90.7892C93.222 89.8685 96.7804 92.6446 96.7804 96.4294V96.4294C96.7804 99.641 94.1769 102.244 90.9654 102.244H58.4008C55.171 102.244 52.5527 99.6261 52.5527 96.3963V96.3963Z" fill="#1668DC"/>
<path d="M30.9595 94.2202L30.9595 3.28205" stroke="#898989" stroke-opacity="0.24" strokeWidth="2.5"/>
<path d="M75.4473 94.2202L75.4473 3.28205" stroke="#898989" stroke-opacity="0.24" strokeWidth="2.5"/>
<rect x="15.0896" y="0.520508" width="1.56098" height="91.0569" fill="#125ECB"/>
<rect x="44.748" y="0.520508" width="1.56098" height="91.0569" fill="#125ECB"/>
<path d="M16.0137 90.5367L15.0894 91.5773L30.1789 95.4799L30.1789 94.1791L16.0137 90.5367Z" fill="#125ECB"/>
<path d="M30.179 95.48H31.7399V94.1792H30.179V95.48Z" fill="#125ECB"/>
<path d="M31.7401 95.4802L46.3091 91.5777L46.0456 90.5939L31.7707 94.1712L31.7401 95.4802Z" fill="#125ECB"/>
<rect x="59.8374" y="0.520508" width="1.56098" height="91.0569" fill="#125ECB"/>
<rect x="89.4961" y="0.520508" width="1.56098" height="91.0569" fill="#125ECB"/>
<path d="M60.7618 90.5367L59.8374 91.5773L74.9269 95.4799L74.9269 94.1791L60.7618 90.5367Z" fill="#125ECB"/>
<path d="M74.927 95.48H76.488V94.1792H74.927V95.48Z" fill="#125ECB"/>
<path d="M76.4882 95.4802L91.0571 91.5777L90.7936 90.5939L76.5188 94.1712L76.4882 95.4802Z" fill="#125ECB"/>
</svg>
